<svg width="48" height="48" viewBox="0 0 48 48" fill="none" xmlns="http://www.w3.org/2000/svg">
<path fill-rule="evenodd" clip-rule="evenodd" d="M21.763 4.28795C21.4545 4.40437 20.2321 4.73617 20.6861 4.10168C21.2566 3.40898 22.1705 2.94913 23.0378 2.61151C23.2939 2.51837 24.6153 2.14001 24.2078 2.74539C23.6374 3.47301 22.6478 3.93869 21.763 4.28795M4.88801 37.8925C3.74128 38.0671 3.64232 36.4838 3.70053 35.8027C3.81695 34.819 4.22442 33.4336 5.35951 33.0261C6.54117 32.7351 6.66923 34.3591 6.61684 35.046C6.50624 36.0298 6.09877 37.5665 4.88801 37.8925M12.6881 10.9297C12.1351 11.2149 11.6578 11.1101 12.0245 10.5106C12.5426 9.73639 13.3226 9.08444 14.1783 8.61876C14.6614 8.36846 15.3192 8.32771 14.935 8.95638C14.3995 9.76549 13.5729 10.4407 12.6823 10.9297M21.6874 35.2963C20.0109 35.4302 19.0097 34.0855 19.0505 32.6943C19.1902 31.1983 20.302 29.7256 21.9959 29.4055C23.684 29.2017 24.7608 30.5115 24.7492 31.926C24.6328 33.4685 23.4628 35.0285 21.6815 35.2963M27.3745 5.21931C26.8913 5.34155 25.3313 5.57439 25.7271 4.7187C26.2335 3.84556 27.421 3.3566 28.4164 3.07719C28.8646 2.96077 30.4654 2.68718 30.1569 3.51958C29.697 4.4393 28.3815 4.9399 27.3745 5.22513M22.2869 26.722C20.3776 26.9898 19.0621 25.68 19.2658 24.0036C19.6093 22.1758 21.1809 20.5809 23.1834 20.0977C25.0519 19.7601 26.5304 20.9127 26.4024 22.624C26.1171 24.5566 24.4174 26.2913 22.2927 26.722M33.4807 24.3238C31.8799 24.4576 30.349 23.5554 30.4188 22.0128C30.6109 20.447 32.136 19.2828 33.8066 19.0208C35.3783 18.8637 36.9441 19.6903 36.95 21.2212C36.8219 22.8569 35.2095 24.0851 33.4807 24.3238ZM25.5583 10.1322C24.5687 10.3709 22.7642 10.3243 23.2299 8.9913C23.8353 7.64666 25.4477 6.77933 26.9204 6.36022C27.8285 6.1332 29.7611 6.04589 29.4234 7.35561C28.8937 8.79921 27.0718 9.7131 25.5525 10.1322M23.6199 17.7228C21.8853 18.0662 20.1099 17.2978 20.5348 15.505C21.1344 13.619 23.0553 12.2103 25.0926 11.6457C26.7109 11.2731 28.7249 11.7854 28.4455 13.6015C27.9507 15.6447 25.7795 17.1814 23.6199 17.7228M44.8025 13.4618C43.5044 13.5433 41.63 13.0252 41.6068 11.6224C41.729 10.2486 43.4462 9.57922 44.785 9.46862C46.0132 9.41041 47.9342 9.84699 47.9982 11.2091C48.068 12.6236 46.1064 13.3803 44.8025 13.4618ZM35.2095 7.68158C34.3946 7.798 32.6017 7.7689 32.8171 6.65127C33.1605 5.55693 34.674 5.0214 35.7974 4.82348C36.6007 4.70706 38.3528 4.70124 38.2597 5.78394C38.0094 6.94232 36.3388 7.48949 35.2095 7.68158M34.1151 15.505C32.4795 15.6971 30.25 15.115 30.477 13.2872C30.8787 11.4943 32.9451 10.3942 34.8078 10.074C36.3853 9.86445 38.6264 10.3301 38.5857 12.1055C38.3412 14.0323 36.0419 15.2023 34.1151 15.5108M5.81355 30.721C4.42233 31.1227 4.41069 29.3065 4.56204 28.5265C4.87055 27.1993 5.61563 25.6684 7.01849 25.0048C8.43299 24.4693 8.56105 26.1865 8.40388 27.0305C8.10119 28.3868 7.327 30.1273 5.81355 30.7152M1.45945 31.8328C0.621233 32.1646 0.813325 30.6628 0.888998 30.2961C1.09273 29.4171 1.46527 28.317 2.3326 27.7931C3.19411 27.374 3.03112 28.8583 2.95545 29.2425C2.75171 30.1215 2.39081 31.3439 1.45945 31.827M10.22 15.8135C9.25374 16.285 8.95105 15.633 9.3236 14.8588C9.92898 13.7179 10.9185 12.7051 12.1177 12.0473C12.9966 11.6049 13.5846 11.9658 13.1771 12.839C12.5542 14.0381 11.4832 15.1324 10.22 15.8193M7.58895 22.9384C6.15116 23.5321 6.1046 21.9837 6.40147 21.1106C6.9661 19.6204 8.04298 18.1477 9.56808 17.3211C10.9535 16.6692 11.2969 17.8683 10.9709 18.8928C10.3947 20.4645 9.2421 22.1234 7.58895 22.9325M0.347647 26.2738C-0.240272 26.6813 0.0798814 25.4297 0.149733 25.226C0.42914 24.446 0.813325 23.602 1.48856 23.0257C2.10558 22.5658 1.80871 23.7475 1.72722 23.992C1.43617 24.7894 1.05781 25.7033 0.347647 26.2738M5.7728 18.1011C5.10921 18.5202 5.21399 17.781 5.40608 17.3852C5.82519 16.5819 6.42475 15.8077 7.21058 15.2605C7.85671 14.8472 7.87417 15.4177 7.65298 15.8833C7.2164 16.7157 6.59356 17.5365 5.77862 18.1011M3.12425 25.0339C2.08812 25.5927 2.40245 23.9803 2.5538 23.5205C2.98455 22.3505 3.67725 21.1222 4.78905 20.3597C5.83683 19.7252 5.6622 21.1397 5.47011 21.6985C5.02189 22.9093 4.31173 24.2772 3.11843 25.0397M11.7859 37.6887C10.1036 37.8575 9.53897 36.1054 9.60883 34.9005C9.76017 33.4569 10.5926 31.7339 12.269 31.2915C13.992 30.983 14.644 32.7409 14.5916 33.9749C14.4519 35.4535 13.5787 37.3453 11.7859 37.6829M12.5251 29.2832C10.5751 29.6849 9.94644 27.8513 10.1909 26.4484C10.5984 24.6323 11.8906 22.7754 13.8698 22.0769C15.7965 21.5355 16.6697 23.1654 16.4601 24.6672C16.0818 26.5765 14.6847 28.6779 12.5251 29.2832M16.658 13.2523C15.4997 13.6655 14.3413 13.3163 14.9059 12.0648C15.651 10.627 17.1237 9.48609 18.7128 8.82831C19.714 8.45577 21.2391 8.48488 20.7269 9.7946C19.9993 11.343 18.3461 12.577 16.6639 13.2464M14.2598 20.5401C12.496 21.0698 11.6403 19.8358 12.0886 18.3805C12.758 16.5528 14.3471 14.9403 16.303 14.1545C17.927 13.5899 19.2018 14.4106 18.7943 15.9939C18.154 17.9614 16.3844 19.7776 14.2598 20.5401ZM19.2018 7.93188C18.6139 8.15308 17.3915 8.31607 17.9095 7.4371C18.5498 6.47664 19.6791 5.78394 20.7967 5.32409C21.2915 5.13781 22.706 4.84094 22.2345 5.71991C21.5942 6.73858 20.3544 7.46038 19.2018 7.93188Z" fill="#E84A4A"/>
<path d="M11.6548 45.5911C12.7896 45.5911 13.7096 44.4079 13.7096 42.9484C13.7096 41.4888 12.7896 40.3057 11.6548 40.3057C10.5199 40.3057 9.59998 41.4888 9.59998 42.9484C9.59998 44.4079 10.5199 45.5911 11.6548 45.5911Z" fill="#E84A4A"/>
</svg>
